# xmcd CD database file
#
# Track frame offsets:
#	150
#	12868
#	25938
#	37441
#	51596
#	78005
#	90316
#
# Disc length: 1428 seconds
#
# Revision: 0
# Processed by: cddbd v1.5.2PL0 Copyright (c) Steve Scherf et al.
# Submitted via: CDex 1.70beta2
#
DISCID=4e059207
DTITLE=Aga Zaryan - Looking, Walking, Being
DYEAR=2010
DGENRE=Jazz
TTITLE0=For the new year
TTITLE1=Looking walking being
TTITLE2=February evening in New York
TTITLE3=Wanting the moon
TTITLE4=My name
TTITLE5=What is this thing called happiness
TTITLE6=Seeking my love
EXTD=YEAR: 2010
EXTT0=
EXTT1=
EXTT2=
EXTT3=
EXTT4=
EXTT5=
EXTT6=
PLAYORDER=
